<?xml version="1.0"?>
<svg xmlns="http://www.w3.org/2000/svg" xmlns:xlink="http://www.w3.org/1999/xlink" xmlns:svgjs="http://svgjs.com/svgjs" version="1.1" width="512" height="512" x="0" y="0" viewBox="0 0 512.0015 512" style="enable-background:new 0 0 512 512" xml:space="preserve" class=""><g><path xmlns="http://www.w3.org/2000/svg" d="m200.003906 0c-4.820312 0-9.339844 2.320312-12.160156 6.226562s-3.589844 8.933594-2.074219 13.507813c.394531 1.183594 38.679688 119.320313-17.589843 175.585937l-21.210938 21.214844c-25.613281 25.613282-28.792969 65.289063-9.542969 94.394532l-124.265625 124.269531c-17.546875 17.546875-17.546875 46.09375 0 63.640625s46.09375 17.546875 63.640625 0l124.261719-124.257813c28.824219 19.140625 68.503906 16.351563 94.402344-9.546875l21.214844-21.214844c56.296874-56.292968 174.40625-17.976562 175.597656-17.585937 4.570312 1.515625 9.597656.746094 13.503906-2.074219 3.90625-2.820312 6.21875-7.34375 6.21875-12.160156 0-83.339844-32.453125-161.6875-91.378906-220.617188-58.933594-58.929687-137.28125-91.382812-220.617188-91.382812zm-144.417968 477.628906c-5.847657 5.847656-15.363282 5.847656-21.210938 0-5.851562-5.851562-5.851562-15.367187 0-21.214844l123.199219-123.203124c3.785156 3.789062 10.8125 10.8125 21.214843 21.214843zm218.664062-133.808594c-17.582031 17.582032-46.046875 17.589844-63.636719.003907 0-.003907-.003906-.003907-.003906-.003907l-42.429687-42.429687c-17.542969-17.546875-17.542969-46.09375 0-63.640625l10.609374-10.605469 106.070313 106.070313zm32.511719-31.132812-107.445313-107.445312c42.15625-54.597657 29.601563-136.597657 20.5625-174.546876 20.289063 1.417969 39.988282 5.007813 58.878906 10.511719l-7.835937 31.335938c-3.375 13.492187-7.699219 26.886719-12.859375 39.804687-3.074219 7.691406.671875 16.421875 8.367188 19.496094 7.722656 3.082031 16.433593-.703125 19.492187-8.367188 5.660156-14.171874 10.40625-28.859374 14.105469-43.65625l7.164062-28.652343c30.019532 12.378906 57.441406 29.808593 81.222656 51.203125l-52.714843 52.71875c-5.859375 5.855468-5.859375 15.355468 0 21.210937 5.855469 5.859375 15.355469 5.859375 21.214843 0l52.714844-52.714843c21.398438 23.785156 38.824219 51.203124 51.207032 81.222656-21.15625 5.679687-41.925782 9.132812-72.308594 21.269531-7.695313 3.074219-11.441406 11.800781-8.367188 19.496094 3.0625 7.667969 11.78125 11.445312 19.496094 8.363281 28.296875-11.300781 47.351562-14.347656 71.140625-20.691406 5.503906 18.886718 9.089844 38.585937 10.511719 58.875-37.949219-9.039063-119.953125-21.59375-174.546875 20.566406zm0 0" fill="#000000" data-original="#000000" style=""/></g></svg>
